<svg xmlns="http://www.w3.org/2000/svg" width="50" height="48" fill="none"  xmlns:v="https://vecta.io/nano"><path fill-rule="evenodd" d="M13.972 10.939l-.047-.044-.044-.047c-.152-.162-.402-.328-1.001-.328s-.897.166-1.106.374c-.021.021-.314.392-.314 1.766v22.68c0 1.212.229 1.691.329 1.835.204.167.519.305 1.091.305.637 0 .902-.171 1.046-.314.079-.079.374-.497.374-1.826V12.66c0-1.347-.303-1.698-.328-1.721zM10.36 38.58c-.6-.64-.9-1.72-.9-3.24V12.66c0-1.52.3-2.58.9-3.18.64-.64 1.48-.96 2.52-.96s1.86.32 2.46.96c.64.6.96 1.66.96 3.18v22.68c0 1.52-.32 2.6-.96 3.24-.6.6-1.42.9-2.46.9s-1.88-.3-2.52-.9zm11.414 5.574l-.008.008c-2.202 2.304-5.273 3.318-8.886 3.318s-6.684-1.014-8.886-3.318l-.008-.008-.007-.008C1.806 41.822.86 38.647.86 34.92V13.08c0-3.719.943-6.884 3.126-9.174C6.185 1.559 9.258.52 12.88.52s6.695 1.039 8.893 3.386c2.184 2.29 3.127 5.455 3.127 9.174v21.84c0 3.727-.946 6.902-3.119 9.226l-.008.008zM20.32 5.28c-1.72-1.84-4.2-2.76-7.44-2.76s-5.72.92-7.44 2.76c-1.72 1.8-2.58 4.4-2.58 7.8v21.84c0 3.4.86 6.02 2.58 7.86 1.72 1.8 4.2 2.7 7.44 2.7s5.72-.9 7.44-2.7c1.72-1.84 2.58-4.46 2.58-7.86V13.08c0-3.4-.86-6-2.58-7.8zm13.949 1h2c1.158 0 1.951-.13 2.459-.308l.014-.005.014-.005c.637-.212 1.05-.466 1.316-.712a3.79 3.79 0 0 0 .828-1.105 13.56 13.56 0 0 0 .732-1.778L42.088 1h7.882v46h-10.6V14.96h-5.1V6.28zm7.1 6.68V45h6.6V3h-4.44a15.55 15.55 0 0 1-.84 2.04 5.79 5.79 0 0 1-1.26 1.68c-.52.48-1.2.86-2.04 1.14-.8.28-1.84.42-3.12.42v4.68h5.1z" fill="url(#A)"/><defs><linearGradient id="A" x1="30" y1="0" x2="30" y2="48" gradientUnits="userSpaceOnUse"><stop stop-color="#f2c94c"/><stop offset="1" stop-color="#f2c94c" stop-opacity=".5"/></linearGradient></defs></svg>