<svg xmlns="http://www.w3.org/2000/svg" width="54" height="48" fill="none"  xmlns:v="https://vecta.io/nano"><path fill-rule="evenodd" d="M11.871 10.801c-.13.144-.411.607-.411 1.859v22.68c0 1.252.281 1.714.411 1.859.091.101.314.281 1.009.281s.918-.18 1.009-.281c.13-.144.411-.607.411-1.859V12.66c0-1.252-.281-1.715-.411-1.859-.091-.101-.314-.281-1.009-.281s-.919.18-1.009.281zm-7.887 33.29C1.835 41.809.86 38.614.86 34.92V13.08c0-3.694.975-6.889 3.124-9.171C6.15 1.608 9.242.52 12.88.52s6.73 1.088 8.896 3.389C23.925 6.191 24.9 9.386 24.9 13.08v21.84c0 3.694-.975 6.889-3.124 9.171-2.166 2.3-5.258 3.389-8.896 3.389s-6.73-1.088-8.896-3.389zM30.189 47v-7.16c0-6.988 3.765-11.098 7.005-14.635l.06-.066c3.304-3.607 6.015-6.621 6.015-11.819 0-1.742-.321-2.367-.473-2.555-.061-.075-.208-.245-.947-.245-.696 0-.918.18-1.009.281-.13.144-.411.607-.411 1.859v6.5h-10.24v-6.08c0-3.668.917-6.862 3.016-9.151C35.33 1.61 38.389.52 42.029.52s6.699 1.09 8.824 3.409c2.099 2.29 3.016 5.483 3.016 9.151 0 7.352-3.697 12.353-7.067 16.192l-1.674 1.865c-1.045 1.15-1.967 2.164-2.748 3.202-.767 1.02-1.248 1.882-1.482 2.662h12.37v10h-23.08zm8.6-9.71c-.039.267-.06.537-.06.81 0 .3 0 .6.06.9h12.48v6h-19.08v-5.16c0-6.21 3.302-9.815 6.588-13.403 3.254-3.552 6.492-7.087 6.492-13.117 0-3.78-1.32-4.8-3.42-4.8s-3.42 1.14-3.42 4.14v4.5h-6.24v-4.08c0-6.72 3.36-10.56 9.84-10.56s9.84 3.84 9.84 10.56c0 7.661-4.426 12.533-8.141 16.622-2.341 2.576-4.399 4.842-4.889 7.298-.019.096-.036.193-.05.29zM12.88 8.52c-2.1 0-3.42 1.14-3.42 4.14v22.68c0 3 1.32 4.14 3.42 4.14s3.42-1.14 3.42-4.14V12.66c0-3-1.32-4.14-3.42-4.14zm0 36.96c-6.48 0-10.02-3.84-10.02-10.56V13.08c0-6.72 3.54-10.56 10.02-10.56S22.9 6.36 22.9 13.08v21.84c0 6.72-3.54 10.56-10.02 10.56z" fill="url(#A)"/><defs><linearGradient id="A" x1="30" y1="0" x2="30" y2="48" gradientUnits="userSpaceOnUse"><stop stop-color="#f2c94c"/><stop offset="1" stop-color="#f2c94c" stop-opacity=".5"/></linearGradient></defs></svg>