<svg xmlns="http://www.w3.org/2000/svg" width="54" height="48" fill="none"  xmlns:v="https://vecta.io/nano"><path fill-rule="evenodd" d="M11.871 10.801c-.13.144-.411.607-.411 1.859v22.68c0 1.252.281 1.714.411 1.859.091.101.314.281 1.009.281s.918-.18 1.009-.281c.13-.144.411-.607.411-1.859V12.66c0-1.252-.281-1.715-.411-1.859-.091-.101-.314-.281-1.009-.281s-.919.18-1.009.281zm-7.887 33.29C1.835 41.809.86 38.614.86 34.92V13.08c0-3.694.975-6.889 3.124-9.171C6.15 1.608 9.242.52 12.88.52s6.73 1.088 8.896 3.389C23.925 6.191 24.9 9.386 24.9 13.08v21.84c0 3.694-.975 6.889-3.124 9.171-2.166 2.3-5.258 3.389-8.896 3.389s-6.73-1.088-8.896-3.389zM36.369 18.1h4.58c.981 0 1.336-.22 1.481-.367.154-.156.479-.642.479-2.073v-2.34c0-1.742-.321-2.367-.473-2.555-.061-.075-.208-.245-.947-.245-.696 0-.918.18-1.009.281-.13.144-.411.607-.411 1.859v4.7h-10.24v-4.28c0-3.668.917-6.862 3.016-9.151C34.97 1.61 38.029.52 41.669.52s6.699 1.09 8.824 3.409c2.099 2.29 3.016 5.483 3.016 9.151v1.08c0 2.442-.387 4.628-1.349 6.447a8.61 8.61 0 0 1-1.674 2.225c2.205 2.172 3.023 5.333 3.023 8.788v3.3c0 3.668-.917 6.862-3.016 9.151-2.125 2.318-5.184 3.408-8.824 3.408s-6.699-1.09-8.824-3.408c-2.099-2.29-3.016-5.483-3.016-9.151v-5.48h10.24v5.9c0 1.252.281 1.714.411 1.859.091.101.314.281 1.009.281.741 0 .892-.172.953-.246.148-.18.467-.788.467-2.494v-3.3c0-1.813-.325-2.556-.572-2.854-.166-.2-.538-.486-1.748-.486h-4.22v-10zm12.489 5.952c-.557-.502-1.211-.921-1.969-1.252.764-.317 1.428-.721 1.995-1.214 1.794-1.558 2.625-4.008 2.625-7.426v-1.08c0-6.72-3.36-10.56-9.84-10.56s-9.84 3.84-9.84 10.56v2.28h6.24v-2.7c0-3 1.32-4.14 3.42-4.14s3.42 1.02 3.42 4.8v2.34c0 3.36-1.5 4.44-3.96 4.44h-2.58v6h2.22c3 0 4.32 1.44 4.32 5.34v3.3c0 3.72-1.32 4.74-3.42 4.74s-3.42-1.14-3.42-4.14v-3.9h-6.24v3.48c0 6.72 3.36 10.56 9.84 10.56s9.84-3.84 9.84-10.56v-3.3c0-3.281-.783-5.886-2.651-7.568zM12.88 8.52c-2.1 0-3.42 1.14-3.42 4.14v22.68c0 3 1.32 4.14 3.42 4.14s3.42-1.14 3.42-4.14V12.66c0-3-1.32-4.14-3.42-4.14zm0 36.96c-6.48 0-10.02-3.84-10.02-10.56V13.08c0-6.72 3.54-10.56 10.02-10.56S22.9 6.36 22.9 13.08v21.84c0 6.72-3.54 10.56-10.02 10.56z" fill="url(#A)"/><defs><linearGradient id="A" x1="30" y1="0" x2="30" y2="48" gradientUnits="userSpaceOnUse"><stop stop-color="#f2c94c"/><stop offset="1" stop-color="#f2c94c" stop-opacity=".5"/></linearGradient></defs></svg>