<svg xmlns="http://www.w3.org/2000/svg" width="12" height="13" fill="none"  xmlns:v="https://vecta.io/nano"><path d="M5.063.5h1.875a.54.54 0 0 1 .398.164.54.54 0 0 1 .164.398V5h2.063c.203 0 .344.102.422.305.078.188.047.352-.094.492L6.328 9.359A.45.45 0 0 1 6 9.5a.45.45 0 0 1-.328-.141L2.109 5.797c-.141-.141-.172-.305-.094-.492.078-.203.219-.305.422-.305H4.5V1.063a.54.54 0 0 1 .164-.398A.54.54 0 0 1 5.063.5zM12 9.313v2.625a.54.54 0 0 1-.562.563H.563a.54.54 0 0 1-.398-.164.54.54 0 0 1-.164-.398V9.313a.54.54 0 0 1 .164-.398.54.54 0 0 1 .398-.164h3.445l1.148 1.148A1.15 1.15 0 0 0 6 10.25a1.15 1.15 0 0 0 .844-.352L7.992 8.75h3.445a.54.54 0 0 1 .398.164.54.54 0 0 1 .164.398zm-3.047 2.391a.45.45 0 0 0 0-.656.45.45 0 0 0-.656 0 .45.45 0 0 0 0 .656.45.45 0 0 0 .656 0zm1.5 0a.45.45 0 0 0 0-.656.45.45 0 0 0-.656 0 .45.45 0 0 0 0 .656.45.45 0 0 0 .656 0z" fill="#000"/></svg>